<svg width="328" height="498" viewBox="0 0 328 498" fill="none" xmlns="http://www.w3.org/2000/svg">
<mask id="mask0_21_321" style="mask-type:alpha" maskUnits="userSpaceOnUse" x="0" y="0" width="328" height="498">
<path d="M0 48C0 21.4903 21.4903 0 48 0H280C306.51 0 328 21.4903 328 48V450C328 476.51 306.51 498 280 498H48C21.4903 498 0 476.51 0 450V48Z" fill="#D9D9D9" fill-opacity="0.7"/>
<path fill-rule="evenodd" clip-rule="evenodd" d="M280 5H48C24.2518 5 5 24.2518 5 48V450C5 473.748 24.2518 493 48 493H280C303.748 493 323 473.748 323 450V48C323 24.2518 303.748 5 280 5ZM48 0C21.4903 0 0 21.4903 0 48V450C0 476.51 21.4903 498 48 498H280C306.51 498 328 476.51 328 450V48C328 21.4903 306.51 0 280 0H48Z" fill="url(#paint0_linear_21_321)"/>
</mask>
<g mask="url(#mask0_21_321)">
<path d="M0 51C0 24.4903 21.4903 3 48 3H280C306.51 3 328 24.4903 328 51V453C328 479.51 306.51 501 280 501H48C21.4903 501 0 479.51 0 453V51Z" fill="#D9D9D9" fill-opacity="0.7"/>
<path fill-rule="evenodd" clip-rule="evenodd" d="M280 8H48C24.2518 8 5 27.2518 5 51V453C5 476.748 24.2518 496 48 496H280C303.748 496 323 476.748 323 453V51C323 27.2518 303.748 8 280 8ZM48 3C21.4903 3 0 24.4903 0 51V453C0 479.51 21.4903 501 48 501H280C306.51 501 328 479.51 328 453V51C328 24.4903 306.51 3 280 3H48Z" fill="url(#paint1_linear_21_321)"/>
<path opacity="0.81" d="M131.512 406L91.253 442.818L50.9853 406L24 430.674L64.2677 467.492L24 504.31L50.9853 528.984L91.253 492.166L131.521 528.984L158.506 504.31L118.238 467.492L158.497 430.674L131.512 406Z" fill="#001C44"/>
<path d="M32.0589 50.3264L28.6651 56.2048C42.9195 64.4346 47.8603 82.5526 39.7084 96.6722C31.5565 110.792 13.3912 115.57 -0.859057 107.342C-15.1094 99.1147 -20.0608 80.996 -11.9089 66.8764L-17.8417 63.4511C-27.8694 80.8196 -21.7911 103.106 -4.25767 113.229C13.2758 123.352 35.6129 117.477 45.643 100.104C55.673 82.7314 49.5882 60.447 32.0589 50.3264Z" fill="white"/>
<path d="M20.5891 203.134L13.0976 215.004L28.0946 215.004L20.5891 203.134Z" fill="white"/>
<path d="M20.259 223.106L12.7604 234.982L27.7575 234.982L20.259 223.106Z" fill="white"/>
<path d="M19.9291 243.078L12.4305 254.954L27.4276 254.954L19.9291 243.078Z" fill="white"/>
<path d="M19.599 263.049L12.1005 274.926L27.0976 274.926L19.599 263.049Z" fill="white"/>
<path d="M19.2621 283.027L11.7706 294.897L26.7676 294.897L19.2621 283.027Z" fill="white"/>
<path d="M292.777 385.314C291.532 384.97 290.26 384.708 288.979 384.536L258.427 412.471C258.615 413.642 258.902 414.797 259.278 415.943L292.777 385.314Z" fill="#EEEEEE"/>
<path d="M307.986 396.108C307.413 395.248 306.777 394.413 306.078 393.602L268.343 428.105C269.22 428.744 270.143 429.325 271.083 429.849L307.986 396.108Z" fill="#EEEEEE"/>
<path d="M301.653 389.556C300.776 388.917 299.853 388.336 298.913 387.812L262.01 421.553C262.583 422.413 263.219 423.248 263.918 424.059L301.653 389.556Z" fill="#EEEEEE"/>
<path d="M279.933 384.7C274.827 385.592 269.955 387.845 265.996 391.456C262.037 395.068 259.583 399.531 258.607 404.199L279.933 384.7Z" fill="#EEEEEE"/>
<path d="M311.389 413.462L290.063 432.961C295.169 432.069 300.041 429.816 304 426.205C307.959 422.593 310.413 418.13 311.389 413.462Z" fill="#EEEEEE"/>
<path d="M311.569 405.19C311.381 404.019 311.094 402.864 310.718 401.718L277.219 432.347C278.464 432.691 279.736 432.953 281.017 433.125L311.569 405.19Z" fill="#EEEEEE"/>
</g>
<defs>
<linearGradient id="paint0_linear_21_321" x1="164" y1="0" x2="164" y2="498" gradientUnits="userSpaceOnUse">
<stop stop-color="#FFA41F"/>
<stop offset="1" stop-color="#FF6A01"/>
</linearGradient>
<linearGradient id="paint1_linear_21_321" x1="164" y1="3" x2="164" y2="501" gradientUnits="userSpaceOnUse">
<stop stop-color="#FFA41F"/>
<stop offset="1" stop-color="#FF6A01"/>
</linearGradient>
</defs>
</svg>
