<svg width="10" height="14" viewBox="0 0 10 14" fill="none" xmlns="http://www.w3.org/2000/svg">
<path d="M1.17587 0.308162C0.966731 0.505537 0.849243 0.773199 0.849243 1.05229C0.849243 1.33138 0.966731 1.59904 1.17587 1.79641L6.698 7.00635L1.17587 12.2163C0.972658 12.4148 0.860213 12.6807 0.862755 12.9566C0.865297 13.2326 0.982622 13.4966 1.18946 13.6917C1.3963 13.8869 1.6761 13.9976 1.9686 14C2.2611 14.0024 2.5429 13.8963 2.7533 13.7045L9.06415 7.75048C9.27329 7.55311 9.39078 7.28544 9.39078 7.00635C9.39078 6.72727 9.27329 6.4596 9.06415 6.26223L2.7533 0.308162C2.5441 0.110846 2.2604 0 1.96459 0C1.66877 0 1.38507 0.110846 1.17587 0.308162Z" fill="#001C44"/>
</svg>
