<svg width="10" height="14" viewBox="0 0 10 14" fill="none" xmlns="http://www.w3.org/2000/svg">
<path d="M8.67642 0.308162C8.88556 0.505537 9.00305 0.773199 9.00305 1.05229C9.00305 1.33138 8.88556 1.59904 8.67642 1.79641L3.15429 7.00635L8.67642 12.2163C8.87964 12.4148 8.99208 12.6807 8.98954 12.9566C8.987 13.2326 8.86967 13.4966 8.66283 13.6917C8.456 13.8869 8.1762 13.9976 7.88369 14C7.59119 14.0024 7.30939 13.8963 7.09899 13.7045L0.788141 7.75048C0.579002 7.55311 0.461514 7.28544 0.461514 7.00635C0.461514 6.72727 0.579002 6.4596 0.788141 6.26223L7.09899 0.308162C7.30819 0.110846 7.5919 0 7.88771 0C8.18352 0 8.46722 0.110846 8.67642 0.308162Z" fill="#001C44"/>
</svg>
