<svg width="27" height="26" viewBox="0 0 27 26" fill="none" xmlns="http://www.w3.org/2000/svg">
<path d="M12.6407 0.908947C12.836 0.308093 13.686 0.308091 13.8812 0.908946L16.4823 8.9141C16.5696 9.18281 16.82 9.36475 17.1025 9.36475H25.5196C26.1514 9.36475 26.4141 10.1732 25.903 10.5445L19.0934 15.492C18.8648 15.6581 18.7692 15.9524 18.8565 16.2212L21.4575 24.2263C21.6527 24.8272 20.965 25.3268 20.4539 24.9555L13.6443 20.008C13.4157 19.8419 13.1062 19.8419 12.8776 20.008L6.06806 24.9555C5.55694 25.3268 4.86923 24.8272 5.06446 24.2263L7.66549 16.2212C7.7528 15.9524 7.65716 15.6581 7.42858 15.492L0.618986 10.5445C0.107868 10.1732 0.370547 9.36475 1.00232 9.36475H9.41944C9.70198 9.36475 9.95239 9.18281 10.0397 8.9141L12.6407 0.908947Z" fill="#FDC306"/>
</svg>
