<svg width="27" height="26" viewBox="0 0 27 26" fill="none" xmlns="http://www.w3.org/2000/svg">
<path d="M12.858 0.908947C13.0532 0.308093 13.9033 0.308091 14.0985 0.908946L16.6996 8.9141C16.7869 9.18281 17.0373 9.36475 17.3198 9.36475H25.7369C26.3687 9.36475 26.6314 10.1732 26.1203 10.5445L19.3107 15.492C19.0821 15.6581 18.9865 15.9524 19.0738 16.2212L21.6748 24.2263C21.87 24.8272 21.1823 25.3268 20.6712 24.9555L13.8616 20.008C13.633 19.8419 13.3235 19.8419 13.0949 20.008L6.28534 24.9555C5.77422 25.3268 5.08652 24.8272 5.28175 24.2263L7.88278 16.2212C7.97009 15.9524 7.87444 15.6581 7.64586 15.492L0.836271 10.5445C0.325153 10.1732 0.587832 9.36475 1.21961 9.36475H9.63673C9.91927 9.36475 10.1697 9.18281 10.257 8.9141L12.858 0.908947Z" fill="#D9D9D9"/>
</svg>
